<?xml version="1.0" encoding="UTF-8"?>
<svg width="247px" height="132px" viewBox="0 0 247 132" version="1.1" xmlns="http://www.w3.org/2000/svg" xmlns:xlink="http://www.w3.org/1999/xlink">
    <!-- Generator: Sketch 54.1 (76490) - https://sketchapp.com -->
    <title>Group 38</title>
    <desc>Created with Sketch.</desc>
    <g id="Caso" stroke="none" stroke-width="1" fill="none" fill-rule="evenodd">
        <g id="Caso-Legislatura" transform="translate(-169.000000, -2527.000000)">
            <g id="Group-7" transform="translate(149.000000, 2445.000000)">
                <g id="Group-2">
                    <g id="Group-38" transform="translate(20.000000, 82.400000)">
                        <g id="Group" transform="translate(-0.000000, -0.000000)">
                            <path d="M5.6,131.2 C4.12533333,131.2 2.68177778,130.602667 1.64266667,129.556711 C0.597333333,128.5176 0,127.074667 0,125.6 C0,124.125333 0.597333333,122.681778 1.64266667,121.642667 C2.68177778,120.597333 4.12533333,120 5.6,120 C7.07466667,120 8.51822222,120.597333 9.55733333,121.642667 C10.6026667,122.681778 11.2,124.125333 11.2,125.6 C11.2,127.074667 10.6026667,128.5176 9.55733333,129.556711 C8.51822222,130.602667 7.07466667,131.2 5.6,131.2" id="Fill-1" fill="#E73631"></path>
                            <path d="M8.06741597,100.085441 C4.97872382,99.3291801 3.09865033,96.2252655 3.85963246,93.1588778 C4.61421977,90.0867656 7.73488596,88.2104238 10.8235781,88.967957 C13.9058755,89.7242182 15.7923437,92.8281328 15.0313616,95.8938845 C14.385486,98.5086781 12.0321968,100.250814 9.44869444,100.250814 C8.99466309,100.250814 8.52784212,100.200566 8.06741597,100.085441" id="Fill-3" fill="#49B0D5"></path>
                            <path d="M5.8676021,115.961201 C2.71496187,115.579572 0.463989537,112.730077 0.841283195,109.59436 C1.22497166,106.452282 4.08984554,104.213393 7.24248576,104.595022 C10.4015208,104.970926 12.6524931,107.819786 12.2751995,110.962499 C11.923485,113.868603 9.43590483,116 6.56463614,116 C6.33442306,116 6.10420998,115.986643 5.8676021,115.961201" id="Path" fill="#49B0D5"></path>
                            <path d="M152.804063,11.4740391 C149.799491,10.6034087 148.07092,7.45816957 148.938349,4.45036522 C149.805777,1.43751739 152.942349,-0.296178261 155.94692,0.573821739 C158.945206,1.44382174 160.673777,4.5896913 159.806349,7.59686522 C159.089777,10.0807783 156.833206,11.7003652 154.375491,11.7003652 C153.853777,11.7003652 153.325777,11.624713 152.804063,11.4740391" id="Path" fill="#F8D21C"></path>
                            <path d="M86.4583486,7.61577826 C85.59092,4.6023 87.3194914,1.4558 90.3177771,0.5858 C93.3223486,-0.283569565 96.45892,1.45012609 97.3263486,4.45666957 C98.1937771,7.47014783 96.4652057,10.6166478 93.46692,11.4866478 C92.93892,11.6379522 92.41092,11.7136043 91.8892057,11.7136043 C89.4377771,11.7136043 87.17492,10.0990609 86.4583486,7.61577826" id="Path" fill="#F8D21C"></path>
                            <path d="M166.909206,16.6681913 L166.909206,16.6681913 C164.055491,15.3821043 162.785777,12.021887 164.061777,9.16664783 C165.344063,6.30447391 168.688063,5.03036522 171.541777,6.31077826 C174.389206,7.59686522 175.665206,10.9507783 174.389206,13.8129522 C173.446349,15.9186043 171.378349,17.1662348 169.222349,17.1662348 C168.449206,17.1662348 167.663491,17.0029522 166.909206,16.6681913" id="Path" fill="#F8D21C"></path>
                            <path d="M71.8943486,13.8249304 C70.6120629,10.9690609 71.8880629,7.60884348 74.7354914,6.3296913 C77.5892057,5.04360435 80.9332057,6.32338696 82.2154914,9.17862609 C83.4914914,12.0408 82.2217771,15.3953435 79.3680629,16.6814304 C78.6200629,17.0218652 77.8343486,17.1794739 77.05492,17.1794739 C74.89892,17.1794739 72.83092,15.9305826 71.8943486,13.8249304" id="Path" fill="#0F30A7"></path>
                            <path d="M180.172063,23.7738217 C177.519491,22.1088435 176.721206,18.6099304 178.374349,15.9558 C180.033777,13.2959957 183.522349,12.494713 186.17492,14.153387 C188.821206,15.8177348 189.625777,19.3160174 187.966349,21.9764522 C186.891491,23.6981696 185.049777,24.6375174 183.164063,24.6375174 C182.139491,24.6375174 181.102349,24.3594957 180.172063,23.7738217" id="Path" fill="#F8D21C"></path>
                            <path d="M58.3172057,21.9953652 C56.6577771,19.3412348 57.4560629,15.8366478 60.1086343,14.1716696 C62.75492,12.5079522 66.2434914,13.3149087 67.90292,15.9690391 C69.5623486,18.6231696 68.7577771,22.1277565 66.1114914,23.7927348 C65.17492,24.3790391 64.1377771,24.6558 63.1132057,24.6558 C61.2274914,24.6558 59.3857771,23.7101478 58.3172057,21.9953652" id="Path" fill="#0F30A7"></path>
                            <path d="M192.360063,32.6314304 C189.95892,30.6266478 189.632063,27.0451478 191.624634,24.6375174 C193.623491,22.2292565 197.193777,21.9014304 199.59492,23.906213 C201.996063,25.9046913 202.32292,29.4849304 200.324063,31.8938217 C199.205206,33.2423217 197.596063,33.9427348 195.974349,33.9427348 C194.698349,33.9427348 193.416063,33.5071043 192.360063,32.6314304" id="Path" fill="#F8D21C"></path>
                            <path d="M45.9532057,31.9190391 C43.9543486,29.5101478 44.2812057,25.9355826 46.6823486,23.9314304 C49.0834914,21.9266478 52.6537771,22.2544739 54.6526343,24.6627348 C56.6452057,27.0703652 56.3246343,30.6449304 53.9172057,32.6503435 C52.8612057,33.5323217 51.57892,33.9679522 50.30292,33.9616478 C48.6812057,33.9616478 47.0720629,33.2675391 45.9532057,31.9190391" id="Path" fill="#0F30A7"></path>
                            <path d="M203.284634,43.0336043 C201.166349,40.731887 201.304634,37.1453435 203.59892,35.0207783 C205.893206,32.8899087 209.476063,33.0342783 211.594349,35.3359957 C213.71892,37.6370826 213.574349,41.2236261 211.280063,43.3488217 C210.192634,44.356887 208.816063,44.8549304 207.439491,44.8549304 C205.918349,44.8549304 204.403491,44.2434087 203.284634,43.0336043" id="Path" fill="#F8D21C"></path>
                            <path d="M34.9972057,43.3860174 C32.70292,41.2620826 32.5583486,37.6749087 34.6766343,35.366887 C36.79492,33.0664304 40.3777771,32.9271043 42.6720629,35.0516696 C44.9663486,37.1768652 45.11092,40.7640391 42.9926343,43.0644957 C41.8737771,44.2818652 40.3526343,44.893387 38.8314914,44.893387 C37.4612057,44.893387 36.0846343,44.3953435 34.9972057,43.3860174" id="Path" fill="#0F30A7"></path>
                            <path d="M212.788634,54.7842783 C210.978349,52.2253435 211.575491,48.6879739 214.127491,46.8723217 C216.673206,45.0573 220.205777,45.656213 222.009777,48.2094739 C223.820063,50.7690391 223.22292,54.3114522 220.677206,56.1208 C219.677777,56.8331913 218.540063,57.1736261 217.402349,57.1736261 C215.636063,57.1736261 213.888634,56.3420826 212.788634,54.7842783" id="Path" fill="#F8D21C"></path>
                            <path d="M25.6000629,56.1712348 C23.0543486,54.361887 22.45092,50.8188435 24.2612057,48.2655826 C26.0652057,45.7066478 29.5977771,45.1077348 32.1434914,46.9170826 C34.6954914,48.7327348 35.2926343,52.2757783 33.4886343,54.8290391 C32.3823486,56.3855826 30.6412057,57.2240609 28.8686343,57.218387 C27.7372057,57.218387 26.5932057,56.8836261 25.6000629,56.1712348" id="Path" fill="#49B0D5"></path>
                            <path d="M220.727491,67.6514522 L220.727491,67.6514522 C219.250349,64.8901478 220.293777,61.4486043 223.04692,59.973387 C225.800063,58.4981696 229.232063,59.5377565 230.70292,62.2990609 C232.180063,65.0673 231.136634,68.5031696 228.383491,69.978387 C227.53492,70.4379739 226.617206,70.6523217 225.718349,70.6523217 C223.700634,70.6523217 221.745777,69.5623 220.727491,67.6514522" id="Path" fill="#F8D21C"></path>
                            <path d="M17.8937771,70.0540391 C15.1343486,68.5788217 14.0972057,65.1360174 15.5617771,62.374713 C17.0326343,59.6077348 20.4646343,58.566887 23.2177771,60.0427348 C25.9772057,61.5179522 27.0143486,64.9538217 25.5434914,67.7214304 C24.5252057,69.6316478 22.5703486,70.7216696 20.5526343,70.7216696 C19.6537771,70.7216696 18.7423486,70.5079522 17.8937771,70.0540391" id="Path" fill="#49B0D5"></path>
                            <path d="M227.000634,81.4390609 L227.000634,81.4390609 C225.881777,78.5081696 227.346349,75.2299087 230.26292,74.1077348 C233.179491,72.9849304 236.448063,74.4538435 237.56692,77.3796913 C238.685777,80.3049087 237.227491,83.5831696 234.31092,84.704713 C233.644634,84.9631913 232.959491,85.0836043 232.28692,85.0836043 C230.011491,85.0836043 227.868063,83.6966478 227.000634,81.4390609" id="Path" fill="#F8D21C"></path>
                            <path d="M11.9726343,84.7873 C9.05606286,83.6714304 7.59149143,80.3868652 8.71034857,77.4616478 C9.82292,74.5358 13.0914914,73.066887 16.0143486,74.1890609 C18.93092,75.3118652 20.3892057,78.5901261 19.2766343,81.5153435 C18.4154914,83.7779739 16.2657771,85.1655609 13.9903486,85.1655609 C13.3177771,85.1655609 12.63892,85.0451478 11.9726343,84.7873" id="Path" fill="#49B0D5"></path>
                            <path d="M231.526349,95.9081696 L231.526349,95.9081696 C230.778349,92.8631696 232.626349,89.7866478 235.662349,89.0358 C238.692063,88.286213 241.759491,90.1390609 242.513777,93.1840609 C243.261777,96.223387 241.407491,99.2999087 238.377777,100.050126 C237.91892,100.163604 237.466349,100.220343 237.013777,100.220343 C234.474349,100.220343 232.161206,98.4923217 231.526349,95.9081696" id="Path" fill="#F8D21C"></path>
                            <path d="M234.254349,110.830561 L234.254349,110.830561 C233.877206,107.715583 236.083491,104.891865 239.188634,104.513604 C242.287491,104.141017 245.109777,106.354474 245.48692,109.468191 C245.857777,112.576235 243.651491,115.401213 240.546349,115.778843 C240.313777,115.804061 240.087491,115.823604 239.861206,115.823604 C237.03892,115.823604 234.600063,113.704713 234.254349,110.830561" id="Path" fill="#F8D21C"></path>
                            <path d="M240.8,131.2 C239.325333,131.2 237.881778,130.602667 236.836444,129.556711 C235.797333,128.5176 235.2,127.074667 235.2,125.6 C235.2,124.125333 235.797333,122.681778 236.836444,121.642667 C237.881778,120.597333 239.325333,120 240.8,120 C242.274667,120 243.718222,120.597333 244.757333,121.642667 C245.802667,122.681778 246.4,124.125333 246.4,125.6 C246.4,127.074667 245.802667,128.5176 244.757333,129.556711 C243.712,130.602667 242.274667,131.2 240.8,131.2" id="Fill-8" fill="#F8D21C"></path>
                            <path d="M223.996891,131.2 C222.529262,131.2 221.086507,130.602667 220.041755,129.556711 C219.00322,128.5176 218.4,127.074667 218.4,125.6 C218.4,124.125333 219.00322,122.681778 220.041755,121.642667 C221.086507,120.597333 222.529262,120 223.996891,120 C225.470738,120 226.913493,120.597333 227.958245,121.642667 C229.002998,122.681778 229.6,124.125333 229.6,125.6 C229.6,127.074667 229.002998,128.5176 227.958245,129.556711 C226.913493,130.602667 225.470738,131.2 223.996891,131.2" id="Fill-10" fill="#F8D21C"></path>
                            <path d="M214.615564,96.7852855 L214.615564,96.7852855 C213.766336,93.7896451 215.502258,90.6686641 218.487046,89.816348 C221.471834,88.9640319 224.581508,90.7062663 225.430736,93.7019067 C226.279965,96.6969204 224.544042,99.8185281 221.559254,100.670844 C221.04722,100.814986 220.528941,100.883923 220.02315,100.883923 C217.575375,100.883923 215.321173,99.2670295 214.615564,96.7852855" id="Fill-12" fill="#F8D21C"></path>
                            <path d="M217.612841,111.130518 C217.188226,108.040872 219.342519,105.19564 222.414727,104.769482 C225.486935,104.343324 228.328103,106.505449 228.746473,109.588828 C229.171087,112.672207 227.023039,115.523079 223.950831,115.949864 C223.688569,115.981199 223.432552,116 223.176535,116 C220.410298,116 217.999989,113.950681 217.612841,111.130518" id="Path" fill="#F8D21C"></path>
                            <path d="M94.5344775,23.7976511 C93.7864916,20.7662481 95.6407424,17.7097404 98.6766853,16.962873 C101.712628,16.2229094 104.773713,18.0737598 105.521699,21.1051628 C106.2634,24.1365657 104.409149,27.1930735 101.373206,27.9405685 C100.920643,28.0472638 100.46808,28.103122 100.021803,28.103122 C97.4761365,28.103122 95.1630371,26.3771679 94.5344775,23.7976511" id="Path" fill="#F8D21C"></path>
                            <path d="M144.718676,27.9524932 L144.718676,27.9524932 C141.682733,27.2062535 139.828482,24.1428419 140.576468,21.111439 C141.324454,18.0863122 144.391825,16.2348342 147.421482,16.9823292 C150.457425,17.728569 152.311676,20.7850767 151.56369,23.8164797 C150.928845,26.3897203 148.615746,28.1156744 146.076365,28.1156744 C145.630087,28.1156744 145.171239,28.0591886 144.718676,27.9524932" id="Path" fill="#F8D21C"></path>
                            <path d="M80.1278915,29.5466472 C78.9022003,26.6721491 80.2473178,23.3583173 83.1198352,22.1350866 C85.9986382,20.9168769 89.3174329,22.2599829 90.5368385,25.1282048 C91.7625297,28.0027028 90.4174122,31.3165346 87.5448948,32.5341168 C86.8220512,32.8416504 86.0740653,32.9866305 85.332365,32.9866305 C83.1324064,32.9866305 81.0393029,31.6931064 80.1278915,29.5466472" id="Path" fill="#9AD1D8"></path>
                            <path d="M158.540702,32.5529453 L158.540702,32.5529453 C155.661899,31.329087 154.323067,28.0152552 155.548758,25.1470334 C156.774449,22.2725353 160.093244,20.9357055 162.965761,22.1601914 C165.844564,23.3771459 167.183396,26.6972539 165.957705,29.5654758 C165.046294,31.7182112 162.95319,33.0048315 160.753231,33.0048315 C160.011531,33.0048315 159.263545,32.860479 158.540702,32.5529453" id="Path" fill="#F8D21C"></path>
                            <path d="M66.8087136,37.4797597 C65.1493162,34.8374809 65.9538725,31.3541918 68.6001084,29.6972759 C71.2526299,28.04036 74.7411357,28.8437132 76.4005331,31.4922681 C78.0599304,34.1345469 77.2553741,37.6184636 74.6028526,39.2747519 C73.6725844,39.8584382 72.635461,40.1345908 71.6109089,40.1345908 C69.7252301,40.1345908 67.8835505,39.1931613 66.8087136,37.4797597" id="Path" fill="#9AD1D8"></path>
                            <path d="M171.476458,39.2998567 C168.823937,37.6435684 168.025666,34.1596517 169.685063,31.5110967 C171.344461,28.8688179 174.832967,28.0654648 177.479202,29.7286569 C180.131724,31.3792966 180.929995,34.8694895 179.270597,37.5117683 C178.19576,39.2245423 176.354081,40.1596956 174.474688,40.1596956 C173.450135,40.1596956 172.406726,39.883543 171.476458,39.2998567" id="Path" fill="#F8D21C"></path>
                            <path d="M54.8126536,47.3647693 C52.7698349,45.0049194 52.829548,41.4343911 55.3437864,39.3946272 L55.3437864,39.4002758 C57.8580248,37.3548634 61.355959,37.6184636 63.3987777,39.9776859 C65.4415964,42.3375358 65.40074,45.9086917 62.8865016,47.9421794 L62.8865016,47.9484556 C62.8865016,48.8710565 60.4590045,49.3229426 59.1453149,49.3229426 C57.5613447,49.3229426 55.9314897,48.6576658 54.8126536,47.3647693" id="Path" fill="#9AD1D8"></path>
                            <path d="M183.230523,47.9798366 C180.867139,45.9400727 180.609429,42.3689168 182.652248,40.0090669 C184.695067,37.649217 188.265285,37.3918929 190.628669,39.4316568 C192.992053,41.4714207 193.249763,45.0432042 191.206944,47.4024265 C190.088108,48.6890468 188.510423,49.3543236 186.926453,49.3543236 C185.612764,49.3543236 184.299074,48.9024375 183.230523,47.9798366" id="Path" fill="#F8D21C"></path>
                            <path d="M44.5866174,58.9066948 C42.2169477,56.8794833 42.1440348,53.3089551 44.0297136,50.9422014 L44.0297136,50.9484776 C45.9153924,48.5760752 49.5899518,48.3061988 51.9596215,50.3334103 C54.3292912,52.3675256 54.5756866,55.9317777 52.5454391,58.2979038 C51.426603,59.6033527 49.8545754,60.2686295 48.2580341,60.2686295 C46.9569157,60.2686295 45.6545402,59.8230195 44.5866174,58.9066948" id="Path" fill="#9AD1D8"></path>
                            <path d="M193.557757,58.3418371 C191.52751,55.9763386 191.79779,52.4108314 194.173745,50.3779713 C196.543415,48.3501322 200.113634,48.6269124 202.150167,50.9924109 C204.180414,53.3591647 203.910134,56.9296929 201.534178,58.957532 C200.465627,59.8669529 199.158223,60.3188391 197.857105,60.3188391 C196.260563,60.3188391 194.676593,59.647286 193.557757,58.3418371" id="Path" fill="#F8D21C"></path>
                            <path d="M36.0155787,71.8356598 C33.3756284,70.1661915 32.5836433,66.6766262 34.2493262,64.0406236 C35.9212948,61.4046211 39.4098006,60.6138203 42.0560365,62.27764 C44.6959868,63.9464807 45.4816863,67.436046 43.8160034,70.0720486 C42.7411664,71.7728979 40.9057724,72.7086788 39.0263792,72.7086788 C37.9955415,72.7086788 36.9521325,72.4256223 36.0155787,71.8356598" id="Path" fill="#9AD1D8"></path>
                            <path d="M202.257022,70.1285343 L202.257022,70.1285343 C200.591339,67.4925318 201.383324,64.0035941 204.02956,62.3397744 C206.66951,60.6765823 210.164302,61.4680107 211.829985,64.1033856 C213.495668,66.746292 212.703682,70.2352297 210.063732,71.8921456 C209.127178,72.4821081 208.083769,72.7651645 207.052932,72.7651645 C205.173538,72.7651645 203.338144,71.8356598 202.257022,70.1285343" id="Path" fill="#F8D21C"></path>
                            <path d="M29.4282741,85.8504068 C26.5746135,84.5832427 25.2923519,81.2436785 26.5620423,78.3942853 C27.8380183,75.544892 31.2925819,74.2645479 34.1456139,75.5329672 C36.9992745,76.8064075 38.3726772,80.1453441 37.115558,82.9947374 L37.115558,82.9890888 C37.115558,85.090987 34.0010452,86.3399501 31.8388002,86.3399501 C31.0656719,86.3399501 30.17626,86.1830452 29.4282741,85.8504068" id="Path" fill="#9AD1D8"></path>
                            <path d="M209.171178,83.0574993 C207.901487,80.2081061 209.190034,76.8697971 212.043695,75.6013778 C214.897355,74.3342137 218.241293,75.6145578 219.510983,78.463951 C220.780673,81.3189929 219.492126,84.6516533 216.638466,85.9257212 C215.89048,86.2520834 215.111066,86.4089883 214.344223,86.4089883 C212.175692,86.4089883 210.107731,85.1606528 209.171178,83.0574993" id="Path" fill="#F8D21C"></path>
                            <path d="M24.8963594,100.662231 C21.8918445,99.8030195 20.1507344,96.6831221 21.0055754,93.676824 C21.8604165,90.6774296 24.9906433,88.9382955 27.9951582,89.7918583 C30.9996731,90.6523248 32.7407832,93.7709669 31.8859421,96.7772651 C31.1756698,99.2563627 28.9128552,100.876249 26.4489016,100.876249 C25.9334827,100.876249 25.4117782,100.806583 24.8963594,100.662231" id="Path" fill="#9AD1D8"></path>
                            <path d="M22.4826905,115.941004 C19.3838917,115.51485 17.2216466,112.699976 17.6553528,109.561878 L17.6490672,109.561878 C18.0827733,106.423779 20.9364339,104.324391 24.0352327,104.756821 C27.127746,105.184858 29.289991,108.038645 28.8562849,111.126533 C28.4665779,113.95647 26.0403378,116 23.2621044,116 C23.004395,116 22.7403999,115.979289 22.4826905,115.941004" id="Path" fill="#9AD1D8"></path>
                            <path d="M22.4,131.2 C20.9253333,131.2 19.4817778,130.602667 18.4426667,129.556711 C17.3973333,128.5176 16.8,127.074667 16.8,125.6 C16.8,124.125333 17.3973333,122.681778 18.4426667,121.642667 C19.4817778,120.597333 20.9253333,120 22.4,120 C23.8746667,120 25.3182222,120.597333 26.3635556,121.642667 C27.4026667,122.681778 28,124.125333 28,125.6 C28,127.074667 27.4026667,128.5176 26.3635556,129.556711 C25.3182222,130.602667 23.8746667,131.2 22.4,131.2" id="Fill-16" fill="#E73631"></path>
                            <path d="M39.2,131.2 C37.7253333,131.2 36.2817778,130.602667 35.2426667,129.556711 C34.1973333,128.5176 33.6,127.074667 33.6,125.6 C33.6,124.125333 34.1973333,122.681778 35.2426667,121.642667 C36.2817778,120.597333 37.7253333,120 39.2,120 C40.6746667,120 42.1182222,120.597333 43.1635556,121.642667 C44.2026667,122.681778 44.8,124.125333 44.8,125.6 C44.8,127.074667 44.2026667,128.5176 43.1635556,129.556711 C42.1182222,130.602667 40.6746667,131.2 39.2,131.2" id="Fill-18" fill="#781715"></path>
                            <path d="M42.779201,101.280141 C39.770692,100.293813 38.1482689,97.1301191 39.1574927,94.2083551 C40.1667166,91.2865911 43.3892066,89.7109476 46.4041031,90.6910723 C49.4126121,91.6711969 51.2681787,94.8348904 49.9906801,97.7566544 L49.9906801,97.7628578 C49.3519309,100.095306 46.9789774,101.571697 44.5766414,101.571697 C43.9704684,101.571697 43.3860128,101.472443 42.779201,101.280141" id="Fill-20" fill="#347737"></path>
                            <path d="M40.0325792,115.932384 C36.9027079,115.436118 34.7692853,112.570184 35.2738972,109.530557 C35.7785092,106.484727 38.7295307,104.412817 41.8657896,104.909083 C44.9956609,105.392942 47.1290835,108.26508 46.6244715,111.304707 C46.1709596,114.052778 43.7309374,116 40.9587656,116 C40.652166,116 40.3455663,115.975187 40.0325792,115.932384" id="Path" fill="#347737"></path>
                            <path d="M137.526762,43.9774434 L137.526762,43.9774434 C134.457861,43.4012629 132.443305,40.4514695 133.020686,37.395208 C133.604342,34.3326836 136.554002,32.3223148 139.622903,32.8984953 C142.685529,33.4809386 144.700084,36.4244692 144.122704,39.4869935 C143.614358,42.1925365 141.242079,44.0776487 138.581109,44.0776487 C138.22966,44.0776487 137.878211,44.0463345 137.526762,43.9774434" id="Path" fill="#F8D21C"></path>
                            <path d="M103.097326,39.4995192 C102.51367,36.4369948 104.528225,33.4872014 107.597127,32.911021 C110.659753,32.3285777 113.615689,34.3389464 114.193069,37.395208 C114.776725,40.4577323 112.76217,43.4075257 109.699544,43.9837062 C109.341819,44.0525973 108.990371,44.0839115 108.638922,44.0839115 C105.984228,44.0839115 103.611948,42.1987994 103.097326,39.4995192" id="Path" fill="#F8D21C"></path>
                            <path d="M150.944577,47.8416101 C148.045124,46.7017749 146.614225,43.4325771 147.756434,40.5328863 C148.898643,37.6394584 152.180924,36.2115329 155.080377,37.3513682 C157.986106,38.4912034 159.410729,41.766664 158.26852,44.6600919 C157.396174,46.883397 155.268653,48.2361684 153.015615,48.2361684 C152.325269,48.2361684 151.628647,48.1109118 150.944577,47.8416101" id="Path" fill="#F8D21C"></path>
                            <path d="M88.9577861,44.6788804 C87.8155774,41.7791897 89.2402004,38.5106182 92.1459293,37.3638938 C95.0453823,36.2240586 98.3276635,37.651984 99.4698723,40.5460382 C100.612081,43.4388399 99.187458,46.7143005 96.2817291,47.8541358 C95.6039349,48.1234375 94.9073131,48.2486941 94.2169671,48.2486941 C91.963929,48.2486941 89.8364083,46.8959226 88.9577861,44.6788804" id="Path" fill="#F8D21C"></path>
                            <path d="M163.439839,54.1357553 C160.791421,52.4823679 159.988109,49.0064967 161.644939,46.363582 C163.30177,43.7269301 166.784879,42.9252878 169.427021,44.5786751 C172.075439,46.2257997 172.872475,49.7079337 171.221921,52.3445856 C170.148746,54.0543385 168.309916,54.9937631 166.427154,54.9937631 C165.404187,54.9937631 164.368668,54.7119357 163.439839,54.1357553" id="Path" fill="#F8D21C"></path>
                            <path d="M76.0106615,52.3633741 C74.3538312,49.7267222 75.1571429,46.250851 77.7992851,44.5974636 C80.4477033,42.9440762 83.9308124,43.7457186 85.5876427,46.3823705 C87.244473,49.0190223 86.4411613,52.5011564 83.7990191,54.1545438 C82.8639141,54.736987 81.8283952,55.0125516 80.805428,55.0125516 C78.9226663,55.0125516 77.0838357,54.073127 76.0106615,52.3633741" id="Path" fill="#872A77"></path>
                            <path d="M174.610892,62.5905771 C172.301371,60.4987916 172.131922,56.9289779 174.228063,54.6305189 C176.330481,52.3257971 179.901452,52.1504378 182.210973,54.2484862 C184.520494,56.3402718 184.689943,59.9038226 182.593801,62.2085444 C181.476696,63.4360593 179.945383,64.0560796 178.407794,64.0560796 C177.052206,64.0560796 175.696618,63.5738416 174.610892,62.5905771" id="Path" fill="#F8D21C"></path>
                            <path d="M64.6450567,62.2398586 C62.5489154,59.9351368 62.7183639,56.3715859 65.0216091,54.2735375 C67.3311301,52.181752 70.9021014,52.422871 73.0045187,54.72133 C75.10066,57.0260518 74.9312115,60.2545412 72.6216905,62.7596736 L72.6279663,62.7596736 C71.5422404,63.3859567 70.1803761,64.1531535 68.8247877,64.1531535 C67.287199,64.1531535 65.762162,63.4611106 64.6450567,62.2398586" id="Path" fill="#872A77"></path>
                            <path d="M184.156493,72.8866713 C182.242352,70.4316416 182.687939,66.8868792 185.154357,64.9829786 C187.620775,63.0728151 191.166643,63.5174761 193.080784,65.9787687 C194.988649,68.4337985 194.543062,71.9785608 192.076644,73.8887243 C191.047401,74.6841038 189.829882,75.0723993 188.618639,75.0723993 C186.936705,75.0723993 185.267323,74.3208596 184.156493,72.8866713" id="Path" fill="#F8D21C"></path>
                            <path d="M55.1622137,73.9200384 C52.6957958,72.0167641 52.243933,68.4713754 54.1580741,66.0163457 C56.0659393,63.5550531 59.618083,63.1041293 62.0845008,65.0142927 C64.5446428,66.9181934 64.9965056,70.4629557 63.0823645,72.9179855 C61.9715351,74.3521738 60.3021531,75.1037135 58.6202193,75.1037135 C57.4089759,75.1037135 56.1914567,74.715418 55.1622137,73.9200384" id="Path" fill="#872A77"></path>
                            <path d="M191.806782,84.6795821 C190.338228,81.9301993 191.380023,78.5169564 194.128855,77.0514539 C196.877687,75.5796886 200.304313,76.6193186 201.772867,79.3624386 C203.241421,82.1118214 202.205902,85.5250643 199.450794,86.9905668 C198.603552,87.4477534 197.69355,87.6606897 196.7961,87.6606897 C194.781545,87.6606897 192.823473,86.5778462 191.806782,84.6795821" id="Path" fill="#F8D21C"></path>
                            <path d="M47.7880637,87.0406694 C45.0392316,85.5751669 43.9974368,82.1556612 45.4659909,79.4125412 C46.934545,76.6631584 50.3548954,75.6297913 53.1100034,77.0952938 C55.8588355,78.5607962 56.9006303,81.9740391 55.4320762,84.7171591 C54.4153848,86.6210597 52.4635885,87.7045295 50.4427577,87.7045295 C49.5453079,87.7045295 48.6353064,87.4915932 47.7880637,87.0406694" id="Path" fill="#872A77"></path>
                            <path d="M197.392308,97.5935397 C196.40072,94.6437462 197.988516,91.4434396 200.944452,90.4539123 C203.906664,89.464385 207.107359,91.0488812 208.098946,94.0049375 C209.09681,96.9547309 207.502739,100.148775 204.546803,101.138928 C203.950595,101.338713 203.341835,101.432655 202.745627,101.432655 C200.385899,101.432655 198.183068,99.9483641 197.392308,97.5935397" id="Path" fill="#F8D21C"></path>
                            <path d="M200.775003,111.2653 C200.279209,108.19025 202.369075,105.296822 205.450528,104.795795 C208.525706,104.301032 211.431435,106.386554 211.927229,109.461604 C212.423022,112.536654 210.333157,115.430082 207.251704,115.924846 C206.950462,115.974949 206.642944,116 206.341702,116 C203.624249,116 201.226866,114.033471 200.775003,111.2653" id="Path" fill="#F8D21C"></path>
                            <path d="M207.203109,131.2 C205.729262,131.2 204.286507,130.602667 203.241755,129.556711 C202.20322,128.5176 201.6,127.074667 201.6,125.6 C201.6,124.125333 202.20322,122.681778 203.241755,121.642667 C204.286507,120.597333 205.729262,120 207.203109,120 C208.676957,120 210.113493,120.597333 211.158245,121.642667 C212.202998,122.681778 212.8,124.125333 212.8,125.6 C212.8,127.074667 212.202998,128.5176 211.158245,129.556711 C210.113493,130.602667 208.670738,131.2 207.203109,131.2" id="Fill-24" fill="#F8D21C"></path>
                        </g>
                        <g id="autoridades" transform="translate(100.000000, 115.200000)" fill="#BFC5D2" fill-rule="nonzero">
                            <circle id="Oval-Copy" cx="24" cy="5.6" r="5.6"></circle>
                            <circle id="Oval-Copy-2" cx="42.4" cy="5.6" r="5.6"></circle>
                            <circle id="Oval" cx="5.6" cy="5.6" r="5.6"></circle>
                        </g>
                    </g>
                </g>
            </g>
        </g>
    </g>
</svg>
