<svg width="842" height="450" viewBox="0 0 842 450" fill="none" xmlns="http://www.w3.org/2000/svg">
<path fill-rule="evenodd" clip-rule="evenodd" d="M706.336 448.637C701.312 448.637 696.394 446.6 692.832 443.035C689.292 439.492 687.236 434.573 687.236 429.546C687.236 424.518 689.292 419.597 692.832 416.055C696.394 412.491 701.312 410.455 706.336 410.455C711.36 410.455 716.257 412.491 719.819 416.055C723.38 419.597 725.415 424.518 725.415 429.546C725.415 434.573 723.38 439.492 719.819 443.035C716.257 446.6 711.339 448.637 706.336 448.637Z" fill="#F8D21C"/>
<path fill-rule="evenodd" clip-rule="evenodd" d="M684.423 380.677C682.733 370.194 689.857 360.33 700.362 358.622C710.845 356.936 720.75 364.045 722.44 374.528C724.13 385.012 717.006 394.876 706.502 396.562C705.475 396.733 704.427 396.818 703.4 396.818C694.136 396.818 685.964 390.114 684.423 380.677Z" fill="#F8D21C"/>
<path fill-rule="evenodd" clip-rule="evenodd" d="M672.892 334.069C669.512 324.013 674.924 313.103 685.001 309.73C695.099 306.356 706.01 311.758 709.39 321.835C712.792 331.891 707.357 342.78 697.281 346.156C695.249 346.837 693.173 347.157 691.141 347.157C683.097 347.157 675.588 342.097 672.892 334.069Z" fill="#F8D21C"/>
<path fill-rule="evenodd" clip-rule="evenodd" d="M653.851 290.044C648.845 280.671 652.397 269.035 661.767 264.039C671.138 259.022 682.819 262.566 687.825 271.918C692.831 281.291 689.301 292.927 679.909 297.923C677.021 299.481 673.919 300.207 670.86 300.207C663.992 300.207 657.317 296.516 653.851 290.044Z" fill="#F8D21C"/>
<path fill-rule="evenodd" clip-rule="evenodd" d="M627.772 249.841C621.247 241.472 622.766 229.387 631.174 222.897C639.582 216.385 651.669 217.901 658.194 226.292C664.698 234.661 663.179 246.745 654.771 253.257C651.263 255.969 647.112 257.293 642.983 257.293C637.25 257.293 631.559 254.731 627.772 249.841Z" fill="#F8D21C"/>
<path fill-rule="evenodd" clip-rule="evenodd" d="M595.232 214.741C587.359 207.61 586.782 195.44 593.927 187.604C601.094 179.747 613.267 179.149 621.14 186.302C629.013 193.433 629.591 205.581 622.445 213.438C618.637 217.623 613.417 219.737 608.176 219.737C603.554 219.737 598.933 218.093 595.232 214.741Z" fill="#F8D21C"/>
<path fill-rule="evenodd" clip-rule="evenodd" d="M557.151 185.918C548.123 180.281 545.385 168.432 551.033 159.422C556.681 150.433 568.554 147.7 577.561 153.337C586.589 158.952 589.306 170.823 583.68 179.811C580.021 185.64 573.753 188.843 567.335 188.843C563.847 188.843 560.317 187.882 557.151 185.918Z" fill="#F8D21C"/>
<path fill-rule="evenodd" clip-rule="evenodd" d="M514.556 164.46C504.672 160.575 499.794 149.43 503.688 139.544C507.582 129.68 518.771 124.812 528.655 128.698C538.56 132.584 543.416 143.75 539.523 153.614C536.549 161.194 529.296 165.805 521.616 165.805C519.263 165.805 516.888 165.378 514.556 164.46Z" fill="#F8D21C"/>
<path fill-rule="evenodd" clip-rule="evenodd" d="M468.816 151.287C458.354 149.323 451.487 139.267 453.455 128.848C455.445 118.407 465.5 111.554 475.961 113.518C486.402 115.503 493.269 125.538 491.301 135.979C489.568 145.202 481.481 151.629 472.41 151.629C471.212 151.629 470.014 151.522 468.816 151.287Z" fill="#F8D21C"/>
<path fill-rule="evenodd" clip-rule="evenodd" d="M351.449 136.021C349.46 125.581 356.327 115.525 366.789 113.561C377.229 111.575 387.305 118.428 389.274 128.848C391.263 139.288 384.396 149.344 373.956 151.308C372.736 151.543 371.538 151.65 370.34 151.65C361.29 151.65 353.203 145.223 351.449 136.021Z" fill="#F8D21C"/>
<path fill-rule="evenodd" clip-rule="evenodd" d="M303.249 153.678C299.355 143.793 304.212 132.65 314.117 128.741C324.001 124.855 335.19 129.723 339.084 139.589C342.977 149.451 338.121 160.617 328.215 164.503C325.905 165.421 323.53 165.848 321.177 165.848C313.496 165.848 306.244 161.236 303.249 153.678Z" fill="#F8D21C"/>
<path fill-rule="evenodd" clip-rule="evenodd" d="M259.113 179.875C253.465 170.887 256.204 159.037 265.211 153.401C274.239 147.764 286.112 150.497 291.76 159.486C297.408 168.474 294.67 180.345 285.663 185.982C282.475 187.967 278.945 188.907 275.458 188.907C269.04 188.907 262.772 185.704 259.113 179.875Z" fill="#872A77"/>
<path fill-rule="evenodd" clip-rule="evenodd" d="M220.369 213.545C213.223 205.688 213.801 193.54 221.653 186.387C229.526 179.256 241.699 180.078 248.866 187.914C256.011 195.771 255.434 206.777 247.561 215.317H247.582C243.881 217.452 239.238 220.068 234.617 220.068C229.376 220.068 224.177 217.709 220.369 213.545Z" fill="#872A77"/>
<path fill-rule="evenodd" clip-rule="evenodd" d="M188.043 253.364C179.635 246.876 178.095 234.789 184.62 226.42C191.124 218.029 203.232 216.492 211.64 223.004C220.027 229.494 221.567 241.579 215.042 249.948C211.255 254.837 205.564 257.399 199.831 257.399C195.702 257.399 191.551 256.076 188.043 253.364Z" fill="#872A77"/>
<path fill-rule="evenodd" clip-rule="evenodd" d="M162.905 298.093C153.535 293.097 149.983 281.44 154.989 272.088C159.995 262.716 171.655 259.193 181.047 264.189C190.418 269.185 193.969 280.821 188.963 290.172C185.497 296.663 178.843 300.357 171.955 300.357C168.895 300.357 165.793 299.631 162.905 298.093Z" fill="#872A77"/>
<path fill-rule="evenodd" clip-rule="evenodd" d="M145.83 346.637C135.575 343.275 130.044 332.489 133.484 322.529C136.925 312.568 147.91 307.197 158.187 310.538C168.443 313.879 174.768 324.665 170.414 334.625V334.646C168.236 342.598 160.147 347.631 151.958 347.631C149.891 347.631 147.899 347.293 145.83 346.637Z" fill="#347737"/>
<path fill-rule="evenodd" clip-rule="evenodd" d="M136.467 396.588C125.798 394.896 118.525 385.126 120.245 374.763C121.966 364.38 132.025 357.317 142.717 359.008C153.386 360.658 160.659 370.449 158.938 380.812C157.393 390.18 149.075 396.818 139.625 396.818C138.579 396.818 137.534 396.734 136.467 396.588Z" fill="#347737"/>
<path fill-rule="evenodd" clip-rule="evenodd" d="M133.629 448.637C128.602 448.637 123.681 446.6 120.139 443.035C116.576 439.492 114.539 434.573 114.539 429.546C114.539 424.518 116.576 419.597 120.139 416.055C123.681 412.491 128.602 410.455 133.629 410.455C138.656 410.455 143.577 412.491 147.141 416.055C150.683 419.597 152.719 424.518 152.719 429.546C152.719 434.573 150.683 439.492 147.141 443.035C143.577 446.6 138.656 448.637 133.629 448.637Z" fill="#781715"/>
<path fill-rule="evenodd" clip-rule="evenodd" d="M763.585 448.637C758.582 448.637 753.663 446.6 750.102 443.035C746.562 439.492 744.505 434.573 744.505 429.546C744.505 424.518 746.562 419.597 750.102 416.055C753.663 412.491 758.582 410.455 763.585 410.455C768.609 410.455 773.527 412.491 777.088 416.055C780.65 419.597 782.685 424.518 782.685 429.546C782.685 434.573 780.65 439.492 777.088 443.035C773.527 446.6 768.609 448.637 763.585 448.637Z" fill="#F8D21C"/>
<path fill-rule="evenodd" clip-rule="evenodd" d="M741.822 380.218C740.374 369.685 747.718 359.985 758.191 358.533C768.664 357.08 778.349 364.451 779.775 374.962C781.223 385.474 773.9 395.193 763.428 396.648C762.533 396.754 761.661 396.818 760.788 396.818C751.358 396.818 743.142 389.832 741.822 380.218Z" fill="#F8D21C"/>
<path fill-rule="evenodd" clip-rule="evenodd" d="M731.605 331.314C728.71 321.101 734.627 310.462 744.802 307.556C754.977 304.65 765.577 310.59 768.472 320.802C771.367 331.012 765.45 341.654 755.275 344.56C753.529 345.051 751.763 345.286 750.038 345.286C741.694 345.286 734.01 339.774 731.605 331.314Z" fill="#F8D21C"/>
<path fill-rule="evenodd" clip-rule="evenodd" d="M713.045 284.514C708.717 274.801 713.109 263.42 722.837 259.096C732.565 254.776 743.964 259.141 748.293 268.855C752.621 278.588 748.228 289.949 738.5 294.292C735.951 295.405 733.294 295.94 730.68 295.94C723.287 295.94 716.238 291.684 713.045 284.514Z" fill="#F8D21C"/>
<path fill-rule="evenodd" clip-rule="evenodd" d="M689.475 240.438C683.797 231.452 686.497 219.558 695.518 213.886C704.517 208.216 716.431 210.914 722.109 219.898C727.787 228.908 725.087 240.802 716.088 246.451C712.895 248.462 709.338 249.427 705.824 249.427C699.417 249.427 693.161 246.258 689.475 240.438Z" fill="#F8D21C"/>
<path fill-rule="evenodd" clip-rule="evenodd" d="M659.82 200.257C652.899 192.192 653.821 180.037 661.92 173.107C669.998 166.194 682.169 167.137 689.111 175.202C696.032 183.27 695.111 195.442 687.011 202.355C683.369 205.456 678.912 206.996 674.476 206.996C669.034 206.996 663.634 204.707 659.82 200.257Z" fill="#F8D21C"/>
<path fill-rule="evenodd" clip-rule="evenodd" d="M624.616 164.932C616.559 157.978 615.681 145.803 622.645 137.758C629.608 129.714 641.779 128.836 649.835 135.79C657.892 142.744 658.77 154.92 651.807 162.963C647.993 167.349 642.614 169.617 637.215 169.617C632.737 169.617 628.258 168.077 624.616 164.932Z" fill="#F8D21C"/>
<path fill-rule="evenodd" clip-rule="evenodd" d="M584.547 135.341C575.505 129.694 572.784 117.817 578.441 108.788C584.097 99.7803 595.989 97.0416 605.01 102.712C614.052 108.339 616.774 120.237 611.117 129.245C607.453 135.084 601.175 138.272 594.768 138.272C591.275 138.272 587.718 137.331 584.547 135.341Z" fill="#F8D21C"/>
<path fill-rule="evenodd" clip-rule="evenodd" d="M540.45 112.34C530.637 108.168 526.073 96.8705 530.251 87.0924C534.429 77.293 545.743 72.7356 555.535 76.91C565.349 81.0587 569.913 92.3773 565.734 102.155C562.627 109.494 555.492 113.88 547.993 113.88C545.464 113.88 542.915 113.388 540.45 112.34Z" fill="#F8D21C"/>
<path fill-rule="evenodd" clip-rule="evenodd" d="M493.332 96.6565C482.983 94.1125 476.662 83.669 479.212 73.3347C481.762 63.0218 492.218 56.7099 502.546 59.2582C512.895 61.8022 519.216 72.2221 516.667 82.5565C514.502 91.3289 506.617 97.2128 497.961 97.2128C496.439 97.2128 494.875 97.0202 493.332 96.6565Z" fill="#F8D21C"/>
<path fill-rule="evenodd" clip-rule="evenodd" d="M322.259 82.4923C319.709 72.1579 326.03 61.738 336.38 59.1919C346.729 56.6693 357.164 62.979 359.714 73.3133C362.242 83.6476 355.921 94.0676 345.572 96.6158C344.029 96.9796 342.486 97.17 340.965 97.17C332.287 97.17 324.402 91.2861 322.259 82.4923Z" fill="#F8D21C"/>
<path fill-rule="evenodd" clip-rule="evenodd" d="M273.149 102.091C268.97 92.2917 273.556 80.9946 283.348 76.8245C293.161 72.6715 304.475 77.2502 308.632 87.0283C312.81 96.8277 308.225 108.125 298.432 112.276C295.968 113.324 293.419 113.818 290.89 113.818C283.391 113.818 276.255 109.409 273.149 102.091Z" fill="#9AD1D8"/>
<path fill-rule="evenodd" clip-rule="evenodd" d="M227.745 129.136C222.088 120.128 224.831 108.253 233.851 102.605C242.894 96.956 254.786 99.6947 260.442 108.724C266.099 117.732 263.356 129.609 254.314 135.255C251.143 137.245 247.608 138.186 244.115 138.186C237.687 138.186 231.409 134.977 227.745 129.136Z" fill="#9AD1D8"/>
<path fill-rule="evenodd" clip-rule="evenodd" d="M186.851 162.835C179.887 154.79 180.091 142.618 188.662 135.664V135.683C197.233 128.71 209.157 129.609 216.121 137.651C223.084 145.696 222.945 157.871 214.374 164.803V164.825C214.374 167.97 206.099 169.51 201.621 169.51C196.221 169.51 190.665 167.242 186.851 162.835Z" fill="#9AD1D8"/>
<path fill-rule="evenodd" clip-rule="evenodd" d="M151.992 202.182C143.914 195.271 143.665 183.099 150.093 175.031V175.052C156.521 166.964 169.048 166.044 177.125 172.955C185.203 179.89 186.043 192.04 179.122 200.107C175.308 204.557 169.95 206.825 164.507 206.825C160.072 206.825 155.632 205.306 151.992 202.182Z" fill="#9AD1D8"/>
<path fill-rule="evenodd" clip-rule="evenodd" d="M122.774 246.258C113.774 240.567 111.075 228.671 116.753 219.684C122.452 210.698 134.344 208.002 143.365 213.674C152.364 219.363 155.043 231.26 149.365 240.246C145.701 246.044 139.444 249.234 133.037 249.234C129.523 249.234 125.966 248.269 122.774 246.258Z" fill="#9AD1D8"/>
<path fill-rule="evenodd" clip-rule="evenodd" d="M100.318 294.036C90.5904 289.716 86.2193 278.331 90.5475 268.617C94.8972 258.903 106.674 254.539 116.399 258.863C126.127 263.204 130.809 274.587 126.524 284.301V284.281C126.524 291.447 115.906 295.705 108.536 295.705C105.9 295.705 102.868 295.17 100.318 294.036Z" fill="#9AD1D8"/>
<path fill-rule="evenodd" clip-rule="evenodd" d="M84.8693 344.531C74.6272 341.601 68.692 330.965 71.606 320.717C74.5201 310.492 85.1908 304.563 95.4329 307.473C105.675 310.406 111.61 321.038 108.696 331.286C106.275 339.738 98.5612 345.26 90.1618 345.26C88.4048 345.26 86.6264 345.023 84.8693 344.531Z" fill="#9AD1D8"/>
<path fill-rule="evenodd" clip-rule="evenodd" d="M76.6414 396.617C66.0779 395.165 58.707 385.568 60.1855 374.87H60.164C61.6425 364.172 71.3704 357.015 81.9339 358.489C92.4759 359.949 99.8468 369.677 98.3684 380.204C97.0399 389.852 88.7691 396.818 79.2983 396.818C78.4198 396.818 77.5199 396.748 76.6414 396.617Z" fill="#9AD1D8"/>
<path fill-rule="evenodd" clip-rule="evenodd" d="M76.3595 448.637C71.3325 448.637 66.4115 446.6 62.8693 443.035C59.3059 439.492 57.2696 434.573 57.2696 429.546C57.2696 424.518 59.3059 419.597 62.8693 416.055C66.4115 412.491 71.3325 410.455 76.3595 410.455C81.3865 410.455 86.3074 412.491 89.8709 416.055C93.4131 419.597 95.4494 424.518 95.4494 429.546C95.4494 434.573 93.4131 439.492 89.8709 443.035C86.3074 446.6 81.3865 448.637 76.3595 448.637Z" fill="#E73631"/>
<path fill-rule="evenodd" clip-rule="evenodd" d="M820.865 448.637C815.838 448.637 810.917 446.6 807.353 443.035C803.811 439.492 801.775 434.573 801.775 429.546C801.775 424.518 803.811 419.597 807.353 416.055C810.917 412.491 815.838 410.455 820.865 410.455C825.892 410.455 830.813 412.491 834.355 416.055C837.918 419.597 839.955 424.518 839.955 429.546C839.955 434.573 837.918 439.492 834.355 443.035C830.792 446.6 825.892 448.637 820.865 448.637Z" fill="#F8D21C"/>
<path fill-rule="evenodd" clip-rule="evenodd" d="M798.551 379.195C797.266 368.576 804.787 358.95 815.372 357.66C825.935 356.39 835.556 363.936 836.842 374.551C838.106 385.147 830.585 394.777 820 396.065C819.207 396.151 818.436 396.217 817.665 396.217C808.044 396.217 799.73 388.994 798.551 379.195Z" fill="#F8D21C"/>
<path fill-rule="evenodd" clip-rule="evenodd" d="M789.252 328.324C786.702 317.943 793.002 307.455 803.351 304.895C813.679 302.34 824.136 308.656 826.707 319.037C829.257 329.398 822.936 339.886 812.608 342.444C811.043 342.831 809.501 343.024 807.958 343.024C799.301 343.024 791.416 337.133 789.252 328.324Z" fill="#F8D21C"/>
<path fill-rule="evenodd" clip-rule="evenodd" d="M773.824 278.997C770.01 269.005 775.003 257.829 784.945 254.004C794.887 250.176 806.029 255.184 809.843 265.158C813.658 275.131 808.686 286.307 798.744 290.13C796.473 291.011 794.137 291.422 791.844 291.422C784.088 291.422 776.781 286.693 773.824 278.997Z" fill="#F8D21C"/>
<path fill-rule="evenodd" clip-rule="evenodd" d="M752.439 231.994C747.404 222.58 750.961 210.848 760.346 205.819C769.731 200.789 781.431 204.334 786.445 213.747C791.48 223.184 787.923 234.897 778.538 239.927C775.645 241.493 772.517 242.224 769.453 242.224C762.575 242.224 755.911 238.508 752.439 231.994Z" fill="#F8D21C"/>
<path fill-rule="evenodd" clip-rule="evenodd" d="M725.377 188.129C719.206 179.405 721.241 167.346 729.941 161.156C738.619 154.968 750.661 157.01 756.811 165.714C762.982 174.44 760.946 186.517 752.268 192.685C748.861 195.113 744.983 196.274 741.104 196.274C735.083 196.274 729.126 193.439 725.377 188.129Z" fill="#F8D21C"/>
<path fill-rule="evenodd" clip-rule="evenodd" d="M692.978 148.069C685.757 140.223 686.229 127.996 694.05 120.753C701.871 113.489 714.084 113.981 721.305 121.828C728.548 129.672 728.055 141.899 720.234 149.144C716.527 152.581 711.834 154.278 707.142 154.278C701.956 154.278 696.792 152.194 692.978 148.069Z" fill="#F8D21C"/>
<path fill-rule="evenodd" clip-rule="evenodd" d="M655.738 112.607C647.552 105.773 646.438 93.5633 653.231 85.3555C660.044 77.1455 672.215 76.0279 680.401 82.8624C688.586 89.6754 689.7 101.881 682.886 110.093C679.072 114.69 673.587 117.078 668.058 117.078C663.709 117.078 659.337 115.593 655.738 112.607Z" fill="#F8D21C"/>
<path fill-rule="evenodd" clip-rule="evenodd" d="M614.19 82.411C605.147 76.735 602.426 64.8068 608.062 55.7587C613.718 46.6912 625.611 43.9595 634.653 49.6141C643.674 55.288 646.417 67.214 640.76 76.2836C637.096 82.1531 630.817 85.3554 624.389 85.3554C620.897 85.3554 617.361 84.4076 614.19 82.411Z" fill="#F8D21C"/>
<path fill-rule="evenodd" clip-rule="evenodd" d="M568.978 58.1873C559.25 53.8029 554.922 42.3476 559.271 32.6138C563.643 22.8564 575.042 18.5129 584.77 22.8779C594.477 27.2623 598.826 38.6961 594.477 48.4535C591.263 55.6319 584.213 59.8851 576.863 59.8851C574.228 59.8851 571.549 59.3285 568.978 58.1873Z" fill="#F8D21C"/>
<path fill-rule="evenodd" clip-rule="evenodd" d="M520.895 40.48C510.653 37.5119 504.76 26.7895 507.717 16.5356C510.674 6.26454 521.366 0.354211 531.609 3.32012C541.829 6.28603 547.722 17.0106 544.765 27.2623C542.322 35.7302 534.63 41.2515 526.252 41.2515C524.473 41.2515 522.673 40.9936 520.895 40.48Z" fill="#F8D21C"/>
<path fill-rule="evenodd" clip-rule="evenodd" d="M294.728 27.3268C291.771 17.0535 297.664 6.32683 307.885 3.36092C318.127 0.397159 328.819 6.30749 331.776 16.5571C334.733 26.8303 328.841 37.557 318.62 40.5229C316.82 41.0387 315.02 41.2966 313.242 41.2966C304.885 41.2966 297.171 35.7925 294.728 27.3268Z" fill="#F8D21C"/>
<path fill-rule="evenodd" clip-rule="evenodd" d="M245.081 48.4943C240.71 38.7584 245.06 27.3031 254.766 22.9424C264.494 18.558 275.894 22.9209 280.265 32.6547C284.615 42.4121 280.286 53.848 270.558 58.2324C268.008 59.393 265.33 59.9303 262.673 59.9303C255.323 59.9303 248.274 55.6727 245.081 48.4943Z" fill="#0F30A7"/>
<path fill-rule="evenodd" clip-rule="evenodd" d="M198.798 76.3481C193.141 67.3 195.862 55.3525 204.905 49.6764C213.926 44.0047 225.818 46.7557 231.475 55.8038C237.132 64.852 234.389 76.7995 225.368 82.4755C222.175 84.4743 218.64 85.4178 215.147 85.4178C208.719 85.4178 202.441 82.194 198.798 76.3481Z" fill="#0F30A7"/>
<path fill-rule="evenodd" clip-rule="evenodd" d="M156.65 110.179C149.836 101.967 150.951 89.7807 159.136 82.9483C167.321 76.1138 179.492 77.2314 186.306 85.4414C193.098 93.6492 192.005 105.835 183.799 112.672C180.199 115.679 175.828 117.164 171.478 117.142C165.95 117.142 160.464 114.776 156.65 110.179Z" fill="#0F30A7"/>
<path fill-rule="evenodd" clip-rule="evenodd" d="M119.302 149.271C111.481 142.03 110.988 129.801 118.209 121.933C125.43 114.09 137.644 113.615 145.465 120.858C153.286 128.103 153.779 140.332 146.558 148.175C142.744 152.325 137.558 154.41 132.373 154.41C127.702 154.41 123.009 152.712 119.302 149.271Z" fill="#0F30A7"/>
<path fill-rule="evenodd" clip-rule="evenodd" d="M87.2682 192.857C78.5901 186.689 76.5331 174.61 82.7042 165.906C88.8539 157.182 100.896 155.14 109.574 161.308C118.274 167.498 120.309 179.577 114.16 188.281C110.388 193.587 104.453 196.446 98.4105 196.427C94.5536 196.427 90.6538 195.285 87.2682 192.857Z" fill="#49B0D5"/>
<path fill-rule="evenodd" clip-rule="evenodd" d="M60.9982 240.184C51.5916 235.155 48.0561 223.419 53.0486 214.005C58.0627 204.572 69.762 201.024 79.1472 206.055C88.5539 211.084 92.0894 222.797 87.0754 232.232C83.6041 238.745 76.9402 242.461 70.062 242.461C66.9979 242.461 63.8909 241.732 60.9982 240.184Z" fill="#49B0D5"/>
<path fill-rule="evenodd" clip-rule="evenodd" d="M40.8136 290.412C30.8713 286.607 25.8787 275.41 29.6928 265.438C33.4854 255.463 44.6277 250.456 54.5914 254.281C64.5338 258.109 69.5049 269.285 65.7123 279.257C62.7767 286.971 55.4485 291.701 47.6918 291.701C45.3991 291.701 43.0849 291.291 40.8136 290.412Z" fill="#49B0D5"/>
<path fill-rule="evenodd" clip-rule="evenodd" d="M27.501 342.564C16.972 339.986 10.563 329.405 13.1571 318.951C15.7294 308.478 26.3675 302.081 36.8965 304.664C47.4038 307.242 53.8346 317.823 51.2405 328.275C49.0387 337.189 41.0166 343.128 32.2097 343.128C30.6619 343.128 29.0706 342.957 27.501 342.564Z" fill="#49B0D5"/>
<path fill-rule="evenodd" clip-rule="evenodd" d="M20.0021 400.686C9.25501 399.385 1.58165 389.671 2.86781 378.981C4.17577 368.269 13.9419 360.637 24.6889 361.938C35.4578 363.219 43.1311 372.931 41.845 383.645C40.646 393.552 32.1661 400.818 22.3782 400.818C21.5934 400.818 20.8086 400.773 20.0021 400.686Z" fill="#49B0D5"/>
<path fill-rule="evenodd" clip-rule="evenodd" d="M19.0899 449.637C14.0629 449.637 9.14193 447.6 5.5997 444.035C2.03625 440.492 0 435.573 0 430.546C0 425.518 2.03625 420.597 5.5997 417.055C9.14193 413.491 14.0629 411.455 19.0899 411.455C24.1169 411.455 29.0378 413.491 32.5801 417.055C36.1435 420.597 38.1798 425.518 38.1798 430.546C38.1798 435.573 36.1435 440.492 32.5801 444.035C29.0378 447.6 24.1169 449.637 19.0899 449.637Z" fill="#E73631"/>
<path d="M422.704 432.273C433.247 432.273 441.794 423.726 441.794 413.182C441.794 402.638 433.247 394.091 422.704 394.091C412.161 394.091 403.615 402.638 403.615 413.182C403.615 423.726 412.161 432.273 422.704 432.273Z" fill="#BFC5D2"/>
<path d="M485.428 432.273C495.971 432.273 504.518 423.726 504.518 413.182C504.518 402.638 495.971 394.091 485.428 394.091C474.885 394.091 466.338 402.638 466.338 413.182C466.338 423.726 474.885 432.273 485.428 432.273Z" fill="#BFC5D2"/>
<path d="M359.981 432.273C370.524 432.273 379.07 423.726 379.07 413.182C379.07 402.638 370.524 394.091 359.981 394.091C349.438 394.091 340.891 402.638 340.891 413.182C340.891 423.726 349.438 432.273 359.981 432.273Z" fill="#BFC5D2"/>
</svg>
